# xmcd
#
# Track frame offsets:
#	150
#	10203
#	23556
#	35109
#	45912
#	53715
#	68718
#	79671
#	92424
#	105477
#	113730
#	121083
#	128436
#	141639
#	152742
#	163845
#	173898
#	182601
#	189804
#	206157
#	227160
#	242313
#	251616
#	264519
#	275322
#	290573
#	300776
#
# Disc length: 4214 seconds
#
# Revision: 1
# Processed by: cddbd v1.4PL0 Copyright (c) Steve Scherf et al.
# Submitted via: EasyCDDAExtractor 6.0.0.1
#
DISCID=5a10741b
DTITLE=Dave Dawson - T. Thought T. Heard a Train and other train songs
DYEAR=1900
DGENRE=
TTITLE0=I thought I Heard a Train
TTITLE1=Wabash Canonball
TTITLE2=Wreck of the Old 97
TTITLE3=True and Trembling Brakesman
TTITLE4=Sucker Lake Train Wreck
TTITLE5=Brakesman's Blues
TTITLE6=Blue Yodel No. 5
TTITLE7=Mystery of No. 5
TTITLE8=Casey Jones
TTITLE9=Travelin Blues
TTITLE10=Southern Canonball
TTITLE11=Hobo's Meditation
TTITLE12=The Last Ride
TTITLE13=Wreck of the No. 9
TTITLE14=Hobo Bill's Last Ride
TTITLE15=Waitin' for a Train
TTITLE16=Jimmie the Kid
TTITLE17=Freight Train Blues
TTITLE18=The Singing Brakesman
TTITLE19=The Night I Sang You Jimmie Rodgers
TTITLE20=Just a Hobo Called Larry
TTITLE21=The Big Rock Candy Mountain
TTITLE22=The "Lightening Express"
TTITLE23=Ben Dewberry's Final Run
TTITLE24=Lonesome Whistle
TTITLE25=The Engineer's Child
TTITLE26=Blue Yodel No. 7
EXTD=
EXTT0=
EXTT1=
EXTT2=
EXTT3=
EXTT4=
EXTT5=
EXTT6=
EXTT7=
EXTT8=
EXTT9=
EXTT10=
EXTT11=
EXTT12=
EXTT13=
EXTT14=
EXTT15=
EXTT16=
EXTT17=
EXTT18=
EXTT19=
EXTT20=
EXTT21=
EXTT22=
EXTT23=
EXTT24=
EXTT25=
EXTT26=
PLAYORDER=
